<?xml version="1.0" standalone="no"?>
<!DOCTYPE svg PUBLIC "-//W3C//DTD SVG 20010904//EN"
 "http://www.w3.org/TR/2001/REC-SVG-20010904/DTD/svg10.dtd">
<svg version="1.0" xmlns="http://www.w3.org/2000/svg"
 width="1000.000000pt" height="1000.000000pt" viewBox="0 0 1000.000000 1000.000000"
 preserveAspectRatio="xMidYMid meet">
<metadata>
Created by potrace 1.16, written by Peter Selinger 2001-2019
</metadata>
<g transform="translate(0.000000,1000.000000) scale(0.100000,-0.100000)"
fill="#00AEC0" stroke="none">
<path d="M6625 8529 c-38 -5 -105 -19 -148 -31 -111 -29 -334 -143 -442 -225
-108 -81 -448 -413 -662 -646 -161 -173 -230 -234 -322 -282 -49 -26 -56 -27
-90 -15 -95 34 -225 138 -494 396 -525 501 -747 659 -1057 751 -311 91 -702
-27 -850 -257 -90 -140 -94 -332 -11 -515 68 -148 243 -355 416 -490 259 -202
588 -370 910 -465 61 -18 111 -34 113 -35 2 -2 -29 -36 -69 -76 -286 -293
-459 -669 -529 -1149 -23 -157 -36 -418 -23 -474 l8 -38 107 178 c59 99 117
198 131 222 l24 43 18 -68 c23 -85 103 -245 147 -296 l33 -39 2 140 c6 477
156 887 422 1153 115 116 241 200 394 265 l109 46 137 -11 c75 -6 188 -16 251
-21 63 -5 171 -15 240 -21 87 -8 496 -10 1350 -8 l1225 4 -3 -570 c-10 -2006
-24 -4031 -28 -4034 -5 -5 -2283 -23 -4641 -36 l-1263 -8 0 2302 0 2301 523 2
522 3 -200 119 c-110 66 -206 124 -213 131 -9 8 31 31 175 99 104 49 199 95
213 102 21 11 -98 13 -732 14 l-758 0 0 -2776 0 -2776 558 6 c306 4 1590 13
2852 21 1262 8 2553 18 2868 21 l572 6 0 357 c0 356 13 2606 25 4295 l7 899
-826 -5 c-454 -4 -826 -5 -826 -3 0 1 44 29 97 61 313 189 509 423 558 669 38
188 -35 455 -156 574 -63 62 -198 133 -304 160 -68 18 -248 43 -280 40 -5 -1
-41 -6 -80 -10z m-3353 -504 c128 -27 312 -140 521 -319 56 -49 201 -181 322
-295 121 -114 240 -226 265 -249 l45 -41 -35 4 c-152 19 -219 31 -318 56 -297
77 -601 229 -834 418 -141 114 -262 264 -274 342 -5 30 -2 36 25 52 33 20 136
45 186 46 17 0 60 -6 97 -14z m3585 -65 c54 -12 108 -43 126 -71 35 -56 -118
-235 -293 -344 -196 -121 -437 -221 -671 -279 -96 -24 -369 -70 -375 -63 -3 3
362 350 465 441 117 104 274 215 366 261 144 70 245 85 382 55z"/>
</g>
</svg>
